<?xml version="1.0" encoding="utf-8"?>
<!-- Generator: Adobe Illustrator 26.0.0, SVG Export Plug-In . SVG Version: 6.00 Build 0)  -->
<svg version="1.1" id="lrc_able" xmlns="http://www.w3.org/2000/svg" xmlns:xlink="http://www.w3.org/1999/xlink" x="0px" y="0px" viewBox="0 0 48 48" style="enable-background:new 0 0 48 48;" xml:space="preserve">
	<style type="text/css">
	.st0{fill:#9AC8E2;}
</style>
	<path class="st0" d="M7.12,19.66c0.03-0.1,0.06-0.25,0.07-0.44c0.02-0.2,0.08-0.34,0.19-0.44c0.11-0.1,0.33-0.15,0.66-0.15
		c0.23,0,0.42,0.02,0.58,0.05c0.78,0.07,1.22,0.1,1.32,0.1c0.23,0,0.54-0.02,0.93-0.05c0.39-0.03,0.93-0.03,1.61,0
		c1.23-0.03,2.09,0.19,2.56,0.66c0.47,0.47,0.71,1.19,0.71,2.13c0,0.49-0.05,1.06-0.15,1.72l-0.15,1.28
		c-0.13,1.11-0.28,2.86-0.44,5.25c-0.07,1.05-0.1,1.72-0.1,2.01c0,0.79,0.1,1.36,0.29,1.72c0.2,0.36,0.57,0.54,1.12,0.54
		c0.29,0,0.63-0.05,1.02-0.15c0.16-0.03,0.36-0.05,0.59-0.05c0.36,0,0.59,0.07,0.71,0.2c0.11,0.13,0.17,0.28,0.17,0.44
		c0,0.16,0.02,0.29,0.05,0.39l0.05,0.59L18.97,36c0,0.26-0.08,0.47-0.24,0.61c-0.16,0.15-0.47,0.27-0.93,0.37
		c-0.23,0.03-0.71,0.13-1.44,0.29c-0.73,0.16-1.58,0.23-2.56,0.2c-0.49,0-1.02-0.25-1.61-0.74c-0.58-0.49-0.88-1.42-0.88-2.8
		c0.06-1.86,0.16-4.07,0.29-6.62c0.03-0.65,0.13-1.62,0.29-2.9c0.1-0.56,0.15-0.96,0.15-1.23c0-0.42-0.13-0.71-0.39-0.86
		c-0.26-0.15-0.75-0.22-1.46-0.22c-0.16,0-0.29,0.01-0.37,0.02c-0.08,0.02-0.15,0.02-0.22,0.02c-0.13,0-0.6-0.06-1.41-0.2
		c-0.46-0.1-0.76-0.22-0.93-0.37c-0.16-0.15-0.24-0.35-0.24-0.61l0.05-0.54L7.12,19.66z M15.85,14.46c-0.78,0-1.58-0.35-2.39-1.06
		c-0.81-0.7-1.38-1.43-1.71-2.18c-0.16-0.33-0.24-0.64-0.24-0.93c0-0.52,0.19-1.03,0.56-1.52c0.37-0.49,0.89-0.87,1.54-1.13
		c0.26-0.1,0.52-0.15,0.78-0.15c0.58,0,1.14,0.19,1.66,0.56c0.52,0.38,0.89,0.86,1.12,1.45c0.52,1.21,0.78,2.14,0.78,2.8
		c0,0.98-0.44,1.65-1.32,2.01C16.37,14.41,16.11,14.46,15.85,14.46z M30.45,38.75c0.12-0.23,0.48-0.38,1.1-0.44l1.41-0.1
		c1.11-0.07,1.94-0.15,2.51-0.27c0.57-0.11,1.03-0.37,1.39-0.76c0.88-0.95,1.43-3.88,1.66-8.78c0.03-0.75,0.07-1.94,0.12-3.56
		s0.07-3.39,0.07-5.32c0-3.21-0.11-5.05-0.34-5.55c-0.97-2.06-3.19-3.09-6.63-3.09c-0.88,0-1.84,0.07-2.88,0.2
		c-0.85,0.13-1.67,0.28-2.49,0.44c-0.71,0.16-1.46,0.31-2.22,0.44c-0.76,0.13-1.41,0.2-1.93,0.2c-0.65,0-1.06-0.1-1.22-0.29
		c-0.16-0.2-0.25-0.4-0.27-0.61c-0.02-0.21-0.02-0.35-0.02-0.42l-0.05-0.54c0-0.1-0.01-0.26-0.02-0.49
		c-0.02-0.23,0.07-0.41,0.27-0.54c0.19-0.13,0.54-0.21,1.02-0.25l3.32-0.39c0.97-0.13,1.93-0.25,2.88-0.34l1.02-0.15
		c1.98-0.26,3.35-0.39,4.1-0.39c0.32,0,0.71,0.03,1.17,0.1c4.19,0.65,6.58,2.68,7.17,6.08c0.1,0.62,0.17,2.99,0.22,7.09
		c0.05,4.11,0.07,7.08,0.07,8.91c0,1.31-0.06,2.48-0.17,3.51c-0.12,1.03-0.19,1.68-0.22,1.94c-0.16,1.6-0.61,2.86-1.34,3.75
		c-0.73,0.9-1.7,1.46-2.9,1.69c-1.2,0.23-2.11,0.38-2.73,0.47c-0.62,0.08-1.53,0.12-2.73,0.12c-0.59,0.03-0.96-0.03-1.12-0.17
		c-0.16-0.15-0.25-0.32-0.27-0.52c-0.02-0.2-0.03-0.34-0.03-0.44l-0.05-0.54C30.3,39.31,30.34,38.98,30.45,38.75z M21.36,18.14v-0.1
		c0-0.33,0.06-0.59,0.17-0.79c0.11-0.2,0.37-0.29,0.76-0.29c3.61-0.07,6.99-0.33,10.14-0.79l1.95-0.2c0.26-0.07,0.44-0.1,0.54-0.1
		c0.32,0,0.58,0.08,0.78,0.25c0.2,0.16,0.32,0.36,0.39,0.59l0.15,0.79c0.06,0.26,0.1,0.46,0.1,0.59c0,0.49-0.39,0.83-1.17,1.03
		l-2.34,0.25c-1.82,0.2-3.4,0.35-4.73,0.47c-1.33,0.12-3.06,0.19-5.17,0.22c-0.58,0.03-0.98-0.02-1.17-0.17
		c-0.19-0.15-0.31-0.42-0.34-0.81L21.36,18.14z M24.92,24.94c1.53-0.51,3.01-0.76,4.44-0.76c0.39,0,0.67,0.02,0.83,0.05
		c1.92,0.23,3.28,0.72,4.1,1.47c0.81,0.75,1.22,1.83,1.22,3.24c0,1.7-0.56,2.95-1.68,3.73s-3,1.23-5.63,1.32
		c-0.55,0.03-0.93-0.03-1.12-0.2c-0.2-0.16-0.31-0.42-0.34-0.79l-0.05-0.98c0-0.33,0.05-0.6,0.17-0.83c0.11-0.23,0.38-0.33,0.8-0.29
		c0.2-0.03,0.71-0.08,1.56-0.15c0.84-0.07,1.57-0.26,2.17-0.59s0.9-0.8,0.9-1.42c0-0.65-0.19-1.11-0.56-1.37
		c-0.38-0.26-1.02-0.39-1.93-0.39c-0.23,0-0.76,0.03-1.61,0.1c-0.81,0.07-1.46,0.27-1.95,0.61s-0.71,0.79-0.68,1.35
		c-0.03,0.62,0.02,1.23,0.15,1.82c0.1,0.88,0.15,1.46,0.15,1.72c0.03,0.59-0.06,0.97-0.29,1.15c-0.23,0.18-0.57,0.27-1.02,0.27
		h-1.07c-0.39,0-0.69-0.06-0.9-0.2c-0.21-0.13-0.33-0.51-0.37-1.13c-0.19-1.64-0.29-2.75-0.29-3.34c0-0.79,0.1-1.52,0.29-2.21
		C22.48,26.17,23.39,25.44,24.92,24.94z" />
</svg>