<?xml version="1.0" encoding="utf-8"?>
<!-- Generator: Adobe Illustrator 26.0.0, SVG Export Plug-In . SVG Version: 6.00 Build 0)  -->
<svg version="1.1" id="randomtune" xmlns="http://www.w3.org/2000/svg" xmlns:xlink="http://www.w3.org/1999/xlink" x="0px" y="0px" viewBox="0 0 48 48" style="enable-background:new 0 0 48 48;" xml:space="preserve">
	<style type="text/css">
	.st0{fill:#9AC8E2;}
</style>
	<path class="st0" d="M5,18.41c1.61-0.07,3.22-0.11,4.83-0.12c1.63,0,3.18-0.07,4.87,0.04c0.83,0.07,1.66,0.19,2.47,0.37
			c0.8,0.18,1.64,0.42,2.39,0.81c1.52,0.78,2.72,2,3.71,3.29c0.49,0.66,0.92,1.33,1.48,1.9c0.55,0.58,1.18,1.07,1.86,1.49
			c1.36,0.85,2.9,1.22,4.47,1.54c1.57,0.31,3.16,0.51,4.73,0.64c0.79,0.07,1.57,0.1,2.34,0.09c0.81,0.01,1.61-0.02,2.42,0.01
			c0.34,0.01,0.61,0.3,0.6,0.64c-0.01,0.33-0.28,0.59-0.6,0.6c-0.81,0.03-1.61,0.01-2.42,0.01c-0.84-0.01-1.66-0.11-2.47-0.22
			c-1.62-0.26-3.2-0.65-4.76-1.11c-0.78-0.23-1.55-0.46-2.32-0.77c-0.77-0.31-1.49-0.71-2.15-1.18c-0.66-0.48-1.28-1.01-1.84-1.6
			c-0.58-0.57-1.03-1.27-1.56-1.85c-1.09-1.17-2.49-1.98-3.92-2.5c-1.41-0.51-2.98-0.82-4.52-0.91C11.48,19.54,8.2,19.55,5,19.41
			c-0.28-0.01-0.49-0.24-0.48-0.52C4.53,18.63,4.74,18.43,5,18.41z" />
	<path class="st0" d="M43,29.09c-1.14,0.42-2.55,1.14-3.42,1.9l0.69-1.9l-0.69-1.9C40.45,27.95,41.86,28.67,43,29.09z" />
	<path class="st0" d="M5,28.59c3.2-0.14,6.48-0.13,9.62-0.16c1.54-0.09,3.11-0.41,4.52-0.91c1.43-0.51,2.83-1.33,3.92-2.5
			c0.53-0.58,0.98-1.28,1.56-1.85c0.56-0.59,1.18-1.12,1.84-1.6c0.67-0.47,1.39-0.88,2.15-1.18c0.77-0.31,1.54-0.54,2.32-0.77
			c1.56-0.46,3.14-0.85,4.76-1.11c0.81-0.11,1.63-0.21,2.47-0.22c0.81,0.01,1.61-0.02,2.42,0.01c0.34,0.01,0.61,0.3,0.6,0.64
			c-0.01,0.33-0.28,0.59-0.6,0.6c-0.81,0.03-1.61,0.01-2.42,0.01c-0.77-0.01-1.55,0.02-2.34,0.09c-1.58,0.12-3.16,0.33-4.73,0.64
			c-1.57,0.31-3.12,0.68-4.47,1.54c-0.68,0.41-1.31,0.91-1.86,1.49c-0.56,0.57-0.99,1.24-1.48,1.9c-0.99,1.29-2.19,2.51-3.71,3.29
			c-0.76,0.39-1.59,0.63-2.39,0.81c-0.81,0.18-1.64,0.31-2.47,0.37c-1.69,0.11-3.24,0.04-4.87,0.04C8.22,29.7,6.61,29.65,5,29.59
			c-0.28-0.01-0.49-0.24-0.48-0.52C4.53,28.81,4.74,28.6,5,28.59z" />
	<path class="st0" d="M43,18.91c-1.14,0.42-2.55,1.14-3.42,1.9l0.69-1.9l-0.69-1.9C40.45,17.77,41.86,18.49,43,18.91z" />
</svg>