<?xml version="1.0" encoding="utf-8"?><svg version="1.1" xmlns="http://www.w3.org/2000/svg" x="0px" y="0px" viewBox="0 0 512 512"><style type="text/css">.st0{fill:url(#SVGID_1_);}.st3{fill:#808080;opacity:0.9;}</style><linearGradient id="SVGID_1_" gradientUnits="userSpaceOnUse" x1="74.7057" y1="435.4167" x2="435.4167" y2="74.7057"><stop offset="0" style="stop-color:#9AC8E2" /><stop offset="0.248" style="stop-color:#9CC9E3" />
		<stop offset="0.3498" style="stop-color:#A3CDE5" />
		<stop offset="0.4247" style="stop-color:#AFD4E8" />
		<stop offset="0.4865" style="stop-color:#C1DDED" />
		<stop offset="0.5402" style="stop-color:#D8EAF4" />
		<stop offset="0.5875" style="stop-color:#F3F9FC" />
		<stop offset="0.6041" style="stop-color:#FFFFFF" />
		<stop offset="0.6175" style="stop-color:#FBEFF3" />
		<stop offset="0.6449" style="stop-color:#F5D4DE" />
		<stop offset="0.6764" style="stop-color:#F0BECD" />
		<stop offset="0.7133" style="stop-color:#ECADC0" />
		<stop offset="0.7588" style="stop-color:#E9A2B7" />
		<stop offset="0.8227" style="stop-color:#E79BB1" />
		<stop offset="1" style="stop-color:#E799B0" />
	</linearGradient>
	<circle class="st0" cx="255.06" cy="255.06" r="255.06" />
	<path d="M305.36,285.69c-0.01,0.33,0.01,0.76-0.04,0.89c0,0-0.05,0.3-0.05,0.3s-0.08,0.16-0.08,0.16
			c-0.11,0.15-0.27,0.09-0.41,0.15l-0.84,0.16c-3.96,0.76-7.97,1.09-11.98,1.46c-13.75,1.67-27.36,4.13-41.24,5.02
			c-18.48,1.43-37.3,1.02-55.47-2.95c-17.98-3.92-34.74-11.5-53.04-13.27c-4.48-0.45-9.01-0.55-13.44,0
			c-3.19,0.47-6.57,1.09-9.08,3.14c-4.75,4.45,3.61,9.03,7.19,10.75c14.57,6.32,30.9,7.53,46.62,8.08
			c57.15,1.08,73.41-86.03,23.83-110.12c-3.9-1.93-8.03-3.45-12.29-4.53c-7.66-2.16-20.18-2.68-28.19-3.54
			c0,0,14.76-3.45,14.76-3.45c24.64-5.69,54.87-14.34,72.38-33.43c0.72-0.9,2.95-3.43,3.59-4.55c2.19-3.03,4.07-6.65,5.37-10.15
			c1.54-4.35,2.75-9,1.98-13.57c-0.92-7.4-7.79-11.74-14.8-12.41c-13.6-1.31-27.03,4.56-38.81,11.13
			c-17.66,9.64-30.88,25.34-42.63,41.43c-18.86,26.32-34.17,55.2-47.56,84.67c-7.27,16.58-14.64,33.42-19.03,50.98
			c-0.36,1.74-0.78,3.55-0.63,5.25c0-0.04,0,0.03-0.03-0.09c-0.11-0.28-0.36-0.5-0.61-0.67c-0.14-0.09-0.31-0.19-0.49-0.23
			c-0.09-0.02,0.04,0.01,0.06,0.01c0,0,0.12,0.02,0.12,0.02c6.17,1.05,10.44-7.95,13.02-12.5c9.06-16.56,17.54-37.95,24.97-55.5
			c10.89-26.01,27.25-64.46,37.58-90.3c3.47-9.39,6.22-19.45,4.19-29.37c-1.85-9.27-8.18-19.42-18.43-20.2
			c-3.92-0.37-7.9,0.06-11.74,1.03c-15.27,4.25-28.1,15.8-36.34,28.99c-3.49,5.75-7.16,13.72-5.67,20.08
			c0.68,2.73,2.66,4.29,5.41,5.1c0.44,0.14,0.81,0.1,1.26,0.12c7.29-0.46,17.5-5.96,22.55-11.26c0.12-0.12,0.17-0.22,0.24-0.31
			c0.09-0.11,0.11-0.17,0.12-0.22c0.08-0.13-0.09-0.07-0.29,0.38c1.44-3.59,5.51-5.34,9.1-3.9c5.22,2.19,5.58,8.39,2.01,12.06
			c-6.82,7.54-26.69,15.67-36.76,13.1c-9.52-2.71-14.23-11.55-12.02-20.96c3.44-14.57,15.44-26.63,27.2-35.05
			c12-8.57,34.13-17.76,46.59-5.88c6.06,5.89,9,14.47,9.23,22.79c0.23,8.37-2.06,16.5-4.88,24.16l-35.76,91.1
			c-7.49,18.92-14.52,38.31-24.15,56.42c-2.04,3.8-3.97,7.6-7.04,10.79c-2.72,3.01-7.44,5.63-11.81,4.38
			c-4.42-1.2-2.7-7.22-2.13-10.45c2.34-10.11,6.03-19.82,9.71-29.4c18.22-45.2,52.34-115.31,91.28-144.7
			c13.87-9.45,29.11-17.58,46.29-18.7c17.05-1.05,29.71,9.55,25.7,27.38c-0.29,1.51-0.93,3.2-1.32,4.69
			c-0.12,0.42-0.35,1.11-0.54,1.53c-1.5,3.94-3.6,7.97-6.09,11.37c-0.92,1.5-2.87,3.63-4.01,5.02c-0.52,0.67-1.61,1.68-2.22,2.29
			c-18.84,18.44-48.01,26.67-73.12,32.33c0,0-0.36-4.83-0.36-4.83c18.87,0.72,38.28,9.09,49.14,25.14
			c8.19,11.82,11.56,26.51,10.73,40.75c-1.29,23.41-15.08,47.4-37.97,55.34c-8.87,3.25-18.39,3.34-27.65,2.37
			c-9.14-0.8-18.27-2.02-27.2-4.17c-4.47-1.13-8.9-2.47-13.13-4.37c-3.16-1.51-6.47-3.28-8.56-6.26
			c-4.41-6.96,5.52-10.45,10.84-11.04c19.44-2.49,39.01,4.3,57.69,8.64c20.87,4.8,42.5,4.27,63.63,1.2
			c13.37-2.05,26.8-4.42,39.88-8.06c3.81-1.18,7.61-2.45,11.51-3.31c0,0,0.83-0.18,0.83-0.18c0.14-0.01,0.27-0.12,0.43-0.03
			c0,0,0.13,0.12,0.13,0.12C304.56,277.57,305.42,281.88,305.36,285.69L305.36,285.69z" />
	<path class="st3" d="M433.77,182.91c-6.64-1.1-10.94,4.02-13.81,10.11c-21.34,45.36-108.37,254.55-108.65,255.81
			c-9.01,41.24-58.65,65.42-110.88,54.01c-52.23-11.41-87.28-54.08-78.27-95.32s58.65-65.42,110.88-54.01
			c26.05,5.69,47.82,19.15,61.99,36.34c0.68,0.83,1.45,3.42,1.99,2.51C376.9,257.77,394.94,73.05,425.39,95.16
			c1.45,1.06,49.73,79.64,103.98,116.85c1.3,0.89,0.44,2.9-1.1,2.57C507.61,210.19,448.38,185.32,433.77,182.91z" />

	<linearGradient id="SVGID_00000017511428253866164770000007243731217774292897_" gradientUnits="userSpaceOnUse" x1="483.9347" y1="176.6497" x2="168.3364" y2="492.248">
		<stop offset="0" style="stop-color:#9AC8E2" />
		<stop offset="0.1511" style="stop-color:#9CC9E3" />
		<stop offset="0.2131" style="stop-color:#A3CDE5" />
		<stop offset="0.2588" style="stop-color:#AFD4E8" />
		<stop offset="0.2964" style="stop-color:#C1DDED" />
		<stop offset="0.3291" style="stop-color:#D8EAF4" />
		<stop offset="0.3579" style="stop-color:#F3F9FC" />
		<stop offset="0.368" style="stop-color:#FFFFFF" />
		<stop offset="0.3894" style="stop-color:#FBEFF3" />
		<stop offset="0.4332" style="stop-color:#F5D4DE" />
		<stop offset="0.4835" style="stop-color:#F0BECD" />
		<stop offset="0.5423" style="stop-color:#ECADC0" />
		<stop offset="0.6149" style="stop-color:#E9A2B7" />
		<stop offset="0.7169" style="stop-color:#E79BB1" />
		<stop offset="1" style="stop-color:#E799B0" />
	</linearGradient>
	<path style="fill:url(#SVGID_00000017511428253866164770000007243731217774292897_);" d="M433.66,202.41
			c-6.36-1.05-10.48,3.85-13.23,9.68c-20.44,43.45-103.82,243.85-104.08,245.06c-8.63,39.5-56.18,62.67-106.22,51.74
			c-50.04-10.93-83.61-51.81-74.98-91.31s56.18-62.67,106.22-51.74c24.95,5.45,45.81,18.35,59.38,34.81
			c0.65,0.79,1.39,3.28,1.91,2.4c76.52-128.92,93.8-305.88,122.97-284.69c1.39,1.01,47.64,76.29,99.6,111.94
			c1.24,0.85,0.42,2.78-1.06,2.46C504.39,228.54,447.65,204.72,433.66,202.41z" />
</svg>