<?xml version="1.0" encoding="utf-8"?>
<!-- Generator: Adobe Illustrator 26.0.0, SVG Export Plug-In . SVG Version: 6.00 Build 0)  -->
<svg version="1.1" xmlns="http://www.w3.org/2000/svg" xmlns:xlink="http://www.w3.org/1999/xlink" x="0px" y="0px"
	 viewBox="0 0 512 512" style="enable-background:new 0 0 512 512;" xml:space="preserve">
<style type="text/css">
	.st0{fill:url(#SVGID_1_);}
	.st1{opacity:0.6;}
	.st2{fill:#808080;}
	.st3{fill:#333333;}
	.st4{opacity:0.9;}
	.st5{fill:url(#SVGID_00000124881390924377942370000005763496833021226128_);}
</style>
<g id="circle">
	<linearGradient id="SVGID_1_" gradientUnits="userSpaceOnUse" x1="86.2944" y1="425.7056" x2="425.7056" y2="86.2944">
		<stop  offset="0" style="stop-color:#9AC8E2"/>
		<stop  offset="0.248" style="stop-color:#9CC9E3"/>
		<stop  offset="0.3498" style="stop-color:#A3CDE5"/>
		<stop  offset="0.4247" style="stop-color:#AFD4E8"/>
		<stop  offset="0.4865" style="stop-color:#C1DDED"/>
		<stop  offset="0.5402" style="stop-color:#D8EAF4"/>
		<stop  offset="0.5875" style="stop-color:#F3F9FC"/>
		<stop  offset="0.6041" style="stop-color:#FFFFFF"/>
		<stop  offset="0.6175" style="stop-color:#FBEFF3"/>
		<stop  offset="0.6449" style="stop-color:#F5D4DE"/>
		<stop  offset="0.6764" style="stop-color:#F0BECD"/>
		<stop  offset="0.7133" style="stop-color:#ECADC0"/>
		<stop  offset="0.7588" style="stop-color:#E9A2B7"/>
		<stop  offset="0.8227" style="stop-color:#E79BB1"/>
		<stop  offset="1" style="stop-color:#E799B0"/>
	</linearGradient>
	<circle class="st0" cx="256" cy="256" r="240"/>
</g>
<g id="B">
	<g>
		<path d="M293.69,288.27c-40.52,8.12-57.3,11.01-97.67-2.39c-14.97-4.74-30.33-11.1-46.19-8.56c-12,2.61-5.86,8.44,1.87,11.61
			c7.27,3.03,15.24,4.4,23.07,5.39c11.53,1.01,23.72,2.57,34.86-1.33c25.56-8.91,36.95-40.07,31.06-65.06
			c-4-18.63-18.36-32.58-36.79-36.94c-7.52-2.04-31.21-4.05-39.26-5.18c32.8-6.33,97.89-16.68,104.09-56.62
			c1.37-10.75-7.33-14.94-16.95-14.35c-14.02,0.9-27.85,8.27-39.41,16.25c-31.59,24.35-57.96,75.44-74.72,111.67
			c-6.14,13.75-12.09,27.91-16.43,42.26c-0.85,3.08-1.85,6.26-1.96,9.34c-0.01-0.02,0-0.13-0.18-0.57
			c-0.27-0.85-1.63-1.95-2.47-2.11c0.14,0.03,0.27,0.07,0.41,0.08c1.46,0.03,2.51-0.84,3.9-2.16c2.31-2.32,3.97-5.59,5.61-8.54
			c1.8-3.29,3.52-6.64,5.17-10.04c14.64-31.77,31.21-73.32,45.19-105.55c6.42-16.67,18.02-35.01,11.78-53.2
			c-1.95-5.79-6.04-11.5-12.27-12.82c-8.03-1.32-16.19,1.54-23.04,5.64c-9.14,5.58-17.03,13.94-22.2,23.1
			c-1.7,3.03-3.08,6.17-3.88,9.18c-0.65,2.32-1.04,5.35-0.24,7.29c0.49,1.22,1.68,1.25,2.85,1.55c0,0,0.08,0.02,0.08,0.02
			c0.01,0-0.01-0.02-0.02-0.03c-0.04-0.05-0.11-0.08-0.14-0.1c0.01-0.03,0.01-0.05,0-0.07c0.01-0.02,0.08-0.04,0.12-0.06
			c0.22-0.07,0.62-0.14,1.15-0.3c4.01-1.1,8.24-3.57,11.72-6.15c1.53-1.23,3.23-2.46,4.01-3.93c0.05-0.08,0-0.08-0.02-0.1
			c-0.02,0-0.01-0.03-0.05-0.01c-0.33,0.18-0.71,0.57-1.33,1.86c2.56-6.41,9.84-9.53,16.25-6.96s9.53,9.84,6.96,16.25
			c-2.09,4.42-4.89,6.62-8.46,8.91c-8.5,4.93-17.12,8.05-27.03,8.85c-2.83,0.18-6.4-0.17-9.2-1.3c-3.19-1.37-6.25-3.4-8.5-6.22
			c-11.47-15.18,3.09-34.29,14.52-44.43c9.15-8.03,19.98-14.55,32.05-16.84c6.03-1.03,12.63-1.11,18.25,1.63
			c9.21,4.84,14.33,15.37,14.72,25.49c0.41,15.93-7.49,30.42-12.7,44.92c-13.29,33.3-27.93,74.52-42.54,107.2
			c-2.07,4.41-4.26,8.8-6.62,13.09c-2.83,5.14-6,10.15-12.06,12.47c-2.2,0.78-4.85,0.92-7.18,0.2c-7.01-2.57-2.84-13.12-1.66-18.22
			c9.25-29.75,22.59-57.8,37.32-85.15c16.34-28.86,37.41-64.26,67.17-80.66c14-7.73,31.56-15.19,47.91-9.73
			c7.01,2.37,12.74,8.93,13.7,16.36c1.03,6.77-0.8,13.39-3.5,19.5c-6.99,15.41-21.42,25.39-36.07,32.2
			c-14.45,6.7-29.62,10.8-44.81,14.05c0,0-0.64-8.63-0.64-8.63c39.39,1.16,63.99,32.82,57.62,71.3
			c-3.4,21.23-18.01,41.62-39.43,47.3c-12.24,3.42-24.95,1.1-37.25-0.63c-10.01-1.79-20.58-3.8-29.37-9.47
			c-8.76-6.1-4.66-12.77,4.3-14.63c32.11-6.03,63.82,12.42,95.47,10.7c7.67-0.28,15.35-1.46,23.14-3.02
			c7.79-1.56,15.65-3.4,23.56-5.17C299.01,275.26,301.5,286.46,293.69,288.27L293.69,288.27z"/>
	</g>
</g>
<g id="pack">
	<g class="st1">
		<path class="st2" d="M28.07,506.57c-12.72,0-23.07-8.88-23.07-19.8V25.23c0-10.92,10.35-19.8,23.07-19.8h416.86
			c12.72,0,23.07,8.88,23.07,19.8v170.45c0,1.59-0.84,3.09-2.32,4.1c-19.76,13.54-31.1,34.03-31.1,56.22s11.33,42.68,31.1,56.22
			c1.47,1.01,2.32,2.5,2.32,4.09v170.46c0,10.92-10.35,19.8-23.07,19.8H28.07z M239.5,194c-35.01,0-63.5,28.49-63.5,63.5
			c0,35.01,28.49,63.5,63.5,63.5c35.01,0,63.5-28.49,63.5-63.5C303,222.49,274.51,194,239.5,194z"/>
		<path class="st3" d="M444.93,10.43c9.96,0,18.07,6.64,18.07,14.8v170.31c-0.03,0.03-0.07,0.07-0.14,0.12
			c-21.15,14.48-33.27,36.48-33.27,60.34s12.13,45.86,33.27,60.34c0.07,0.05,0.12,0.09,0.14,0.12v170.31
			c0,8.16-8.11,14.8-18.07,14.8H28.07c-9.96,0-18.07-6.64-18.07-14.8V25.23c0-8.16,8.11-14.8,18.07-14.8H444.93 M239.5,326
			c37.77,0,68.5-30.73,68.5-68.5S277.27,189,239.5,189S171,219.73,171,257.5S201.73,326,239.5,326 M444.93,0.43H28.07
			C12.57,0.43,0,11.53,0,25.23v461.53c0,13.7,12.57,24.8,28.07,24.8h416.86c15.5,0,28.07-11.11,28.07-24.8V316.31
			c0-3.2-1.63-6.26-4.49-8.22c-17.59-12.05-28.93-30.9-28.93-52.09s11.33-40.04,28.93-52.09c2.86-1.96,4.49-5.02,4.49-8.22V25.23
			C473,11.53,460.43,0.43,444.93,0.43L444.93,0.43z M239.5,316c-32.31,0-58.5-26.19-58.5-58.5c0-32.31,26.19-58.5,58.5-58.5
			s58.5,26.19,58.5,58.5C298,289.81,271.81,316,239.5,316L239.5,316z"/>
	</g>
</g>
<g id="phonogram">
	<g class="st4">
		<path class="st2" d="M424.16,188.11c-6.25-1.03-10.3,3.78-13,9.51c-20.08,42.68-101.97,239.52-102.23,240.7
			c-8.47,38.8-55.19,61.56-104.34,50.82c-49.15-10.73-82.12-50.89-73.65-89.69c8.47-38.8,55.19-61.56,104.34-50.82
			c24.51,5.35,45,18.02,58.33,34.19c0.64,0.78,1.37,3.22,1.88,2.36c75.16-126.63,92.14-300.45,120.79-279.64
			c1.37,0.99,46.79,74.94,97.84,109.95c1.22,0.84,0.41,2.73-1.04,2.42C493.63,213.78,437.9,190.38,424.16,188.11z"/>
	</g>
	<g>
		
			<linearGradient id="SVGID_00000023960490513893656860000011211315291952792476_" gradientUnits="userSpaceOnUse" x1="471.3587" y1="182.2187" x2="174.3963" y2="479.1811">
			<stop  offset="0" style="stop-color:#9AC8E2"/>
			<stop  offset="0.1511" style="stop-color:#9CC9E3"/>
			<stop  offset="0.2131" style="stop-color:#A3CDE5"/>
			<stop  offset="0.2588" style="stop-color:#AFD4E8"/>
			<stop  offset="0.2964" style="stop-color:#C1DDED"/>
			<stop  offset="0.3291" style="stop-color:#D8EAF4"/>
			<stop  offset="0.3579" style="stop-color:#F3F9FC"/>
			<stop  offset="0.368" style="stop-color:#FFFFFF"/>
			<stop  offset="0.3894" style="stop-color:#FBEFF3"/>
			<stop  offset="0.4332" style="stop-color:#F5D4DE"/>
			<stop  offset="0.4835" style="stop-color:#F0BECD"/>
			<stop  offset="0.5423" style="stop-color:#ECADC0"/>
			<stop  offset="0.6149" style="stop-color:#E9A2B7"/>
			<stop  offset="0.7169" style="stop-color:#E79BB1"/>
			<stop  offset="1" style="stop-color:#E799B0"/>
		</linearGradient>
		<path style="fill:url(#SVGID_00000023960490513893656860000011211315291952792476_);" d="M424.05,206.45
			c-5.99-0.99-9.86,3.62-12.45,9.11c-19.24,40.88-97.69,229.45-97.93,230.59c-8.12,37.17-52.87,58.97-99.95,48.69
			s-78.67-48.75-70.55-85.92s52.87-58.97,99.95-48.69c23.48,5.13,43.1,17.26,55.88,32.75c0.62,0.75,1.31,3.09,1.8,2.26
			c72-121.31,88.26-287.82,115.71-267.88c1.31,0.95,44.83,71.79,93.72,105.33c1.17,0.8,0.39,2.61-0.99,2.32
			C490.61,231.05,437.22,208.63,424.05,206.45z"/>
	</g>
	<g>
	</g>
	<g>
	</g>
	<g>
	</g>
	<g>
	</g>
	<g>
	</g>
	<g>
	</g>
	<g>
	</g>
	<g>
	</g>
	<g>
	</g>
	<g>
	</g>
	<g>
	</g>
	<g>
	</g>
	<g>
	</g>
	<g>
	</g>
	<g>
	</g>
</g>
</svg>
